<?xml version="1.0" encoding="UTF-8"?>
<svg width="50px" height="50px" viewBox="0 0 50 50" version="1.1" xmlns="http://www.w3.org/2000/svg" xmlns:xlink="http://www.w3.org/1999/xlink">
    <title>4B591263-D56F-42BB-AF50-C96AC99CEDB8</title>
    <g id="Page-1" stroke="none" stroke-width="1" fill="none" fill-rule="evenodd">
        <g id="Regulator---homepage---concept-FINAL" transform="translate(-1384, -8945)">
            <g id="features" transform="translate(87, 8886)">
                <g id="Group-4" transform="translate(1297, 59)">
                    <circle id="Oval" fill="#85D0CC" cx="25" cy="25" r="25"></circle>
                    <g id="math-plus" transform="translate(17, 17)" fill="#FFFFFF" fill-rule="nonzero">
                        <path d="M8,0 C7.4477,0 7,0.44772 7,1 L7,7 L1,7 C0.44772,7 0,7.4477 0,8 C0,8.5523 0.44772,9 1,9 L7,9 L7,15 C7,15.5523 7.4477,16 8,16 C8.5523,16 9,15.5523 9,15 L9,9 L15,9 C15.5523,9 16,8.5523 16,8 C16,7.4477 15.5523,7 15,7 L9,7 L9,1 C9,0.44772 8.5523,0 8,0 Z" id="Path"></path>
                    </g>
                </g>
            </g>
        </g>
    </g>
</svg>