<?xml version="1.0" encoding="UTF-8"?>
<svg width="24px" height="22px" viewBox="0 0 24 22" version="1.1" xmlns="http://www.w3.org/2000/svg" xmlns:xlink="http://www.w3.org/1999/xlink">
    <title>E0612577-B4C0-4DC1-8FE8-8186B8EB52BA</title>
    <g id="Page-1" stroke="none" stroke-width="1" fill="none" fill-rule="evenodd">
        <g id="Regulator---homepage---concept-FINAL" transform="translate(-794, -16926)" fill="#FFFFFF" fill-rule="nonzero">
            <g id="Group-5" transform="translate(753, 16897)">
                <g id="icon-calendar" transform="translate(41, 29)">
                    <path d="M13,4 L8,4 L8,2 L11,2 L11,0 L13,0 L13,4 Z M19,0 L17,0 L17,2 L15,2 L15,4 L19,4 L19,0 Z M24,2 L24,19 C24,20.7 22.7,22 21,22 L2.4,22 C1.1,22 0,20.9 0,19.6 L0,2 L4,2 L4,0 L6,0 L6,4 L2,4 L2,7 L22,7 L22,4 L21,4 L21,2 L24,2 Z M7,15 L2,15 L2,19.6 C2,19.8 2.2,20 2.4,20 L7,20 L7,15 Z M7,9 L2,9 L2,13 L7,13 L7,9 Z M15,15 L9,15 L9,20 L15,20 L15,15 Z M15,9 L9,9 L9,13 L15,13 L15,9 Z M22,15 L17,15 L17,20 L21,20 C21.6,20 22,19.6 22,19 L22,15 Z M22,9 L17,9 L17,13 L22,13 L22,9 Z" id="Shape"></path>
                </g>
            </g>
        </g>
    </g>
</svg>