<?xml version="1.0" encoding="UTF-8"?>
<svg width="55px" height="55px" viewBox="0 0 55 55" version="1.1" xmlns="http://www.w3.org/2000/svg" xmlns:xlink="http://www.w3.org/1999/xlink">
    <title>FA9D583E-27F4-4887-BBDB-A22EB262AF71</title>
    <g id="Page-1" stroke="none" stroke-width="1" fill="none" fill-rule="evenodd">
        <g id="Regulator---homepage---concept-FINAL" transform="translate(-275, -18348)">
            <g id="footer" transform="translate(73, 17897)">
                <g id="social" transform="translate(137, 451)">
                    <g id="Group-2" transform="translate(65, 0)">
                        <rect id="Rectangle" fill="#FFFFFF" x="0" y="0" width="55" height="55" rx="8"></rect>
                        <path d="M28.0020078,23.2646484 C25.4480759,23.2646484 23.3880647,25.2685547 23.3880647,27.7529297 C23.3880647,30.2373047 25.4480759,32.2412109 28.0020078,32.2412109 C30.5559398,32.2412109 32.6159509,30.2373047 32.6159509,27.7529297 C32.6159509,25.2685547 30.5559398,23.2646484 28.0020078,23.2646484 Z M28.0020078,30.6708984 C26.3515895,30.6708984 25.0023424,29.3623047 25.0023424,27.7529297 C25.0023424,26.1435547 26.3475739,24.8349609 28.0020078,24.8349609 C29.6564417,24.8349609 31.0016732,26.1435547 31.0016732,27.7529297 C31.0016732,29.3623047 29.6524261,30.6708984 28.0020078,30.6708984 L28.0020078,30.6708984 Z M33.8808701,23.0810547 C33.8808701,23.6630859 33.3989961,24.1279297 32.8046849,24.1279297 C32.2063581,24.1279297 31.7284997,23.6591797 31.7284997,23.0810547 C31.7284997,22.5029297 32.2103737,22.0341797 32.8046849,22.0341797 C33.3989961,22.0341797 33.8808701,22.5029297 33.8808701,23.0810547 Z M36.936754,24.1435547 C36.8684886,22.7412109 36.539208,21.4990234 35.4831009,20.4755859 C34.4310095,19.4521484 33.1540435,19.1318359 31.7124373,19.0615234 C30.2266592,18.9794922 25.7733408,18.9794922 24.2875627,19.0615234 C22.8499721,19.1279297 21.5730061,19.4482422 20.5168991,20.4716797 C19.460792,21.4951172 19.135527,22.7373047 19.063246,24.1396484 C18.978918,25.5849609 18.978918,29.9169922 19.063246,31.3623047 C19.1315114,32.7646484 19.460792,34.0068359 20.5168991,35.0302734 C21.5730061,36.0537109 22.8459565,36.3740234 24.2875627,36.4443359 C25.7733408,36.5263672 30.2266592,36.5263672 31.7124373,36.4443359 C33.1540435,36.3779297 34.4310095,36.0576172 35.4831009,35.0302734 C36.5351924,34.0068359 36.864473,32.7646484 36.936754,31.3623047 C37.021082,29.9169922 37.021082,25.5888672 36.936754,24.1435547 Z M35.0172895,32.9130859 C34.7040714,33.6787109 34.0977133,34.2685547 33.3066369,34.5771484 C32.1220301,35.0341797 29.3110987,34.9287109 28.0020078,34.9287109 C26.6929169,34.9287109 23.8779699,35.0302734 22.6973787,34.5771484 C21.9103179,34.2724609 21.3039598,33.6826172 20.9867262,32.9130859 C20.5168991,31.7607422 20.6253207,29.0263672 20.6253207,27.7529297 C20.6253207,26.4794922 20.5209147,23.7412109 20.9867262,22.5927734 C21.2999442,21.8271484 21.9063023,21.2373047 22.6973787,20.9287109 C23.8819855,20.4716797 26.6929169,20.5771484 28.0020078,20.5771484 C29.3110987,20.5771484 32.1260457,20.4755859 33.3066369,20.9287109 C34.0936977,21.2333984 34.7000558,21.8232422 35.0172895,22.5927734 C35.4871166,23.7451172 35.3786949,26.4794922 35.3786949,27.7529297 C35.3786949,29.0263672 35.4871166,31.7646484 35.0172895,32.9130859 Z" id="instagram" fill="#002E60" fill-rule="nonzero"></path>
                    </g>
                </g>
            </g>
        </g>
    </g>
</svg>