<?xml version="1.0" encoding="UTF-8"?>
<svg width="55px" height="55px" viewBox="0 0 55 55" version="1.1" xmlns="http://www.w3.org/2000/svg" xmlns:xlink="http://www.w3.org/1999/xlink">
    <title>44A33EC3-6DDC-405F-8A70-8028C620F561</title>
    <g id="Page-1" stroke="none" stroke-width="1" fill="none" fill-rule="evenodd">
        <g id="Regulator---homepage---concept-FINAL" transform="translate(-470, -18348)">
            <g id="footer" transform="translate(73, 17897)">
                <g id="social" transform="translate(137, 451)">
                    <g id="Group-3" transform="translate(260, 0)">
                        <rect id="Rectangle" fill="#FFFFFF" x="0" y="0" width="55" height="55" rx="8"></rect>
                        <g id="icon-tiktok" transform="translate(19, 18)" fill="#002E60">
                            <path d="M16,4.96446701 L16,7.37055838 C14.3667297,7.37055838 12.8544423,6.85279188 11.6143667,5.96954315 L11.6143667,12.2741117 C11.6143667,15.4111675 9.01323251,18 5.80718336,18 C4.56710775,18 3.41776938,17.6040609 2.48015123,16.964467 C2.48015123,16.964467 2.48015123,16.964467 2.48015123,16.964467 C0.998109641,15.928934 0,14.2233503 0,12.3045685 C0,9.16751269 2.60113422,6.5786802 5.80718336,6.5786802 C6.07939509,6.5786802 6.32136106,6.60913706 6.59357278,6.63959391 L6.59357278,7.37055838 L6.59357278,7.37055838 L6.59357278,9.8071066 C6.35160681,9.71573604 6.07939509,9.68527919 5.80718336,9.68527919 C4.35538752,9.68527919 3.14555766,10.8426396 3.14555766,12.3045685 C3.14555766,13.3096447 3.72022684,14.1624365 4.56710775,14.6192893 C4.56710775,14.6192893 4.56710775,14.6192893 4.56710775,14.6192893 C4.93005671,14.8020305 5.35349716,14.9238579 5.80718336,14.9238579 C7.22873346,14.9238579 8.40831758,13.7969543 8.43856333,12.4263959 L8.43856333,0 L11.584121,0 C11.584121,0.274111675 11.6143667,0.517766497 11.6446125,0.791878173 L11.6446125,0.791878173 C11.8563327,1.97969543 12.5822306,2.98477157 13.5803403,3.62436548 C13.5803403,3.62436548 13.5803403,3.62436548 13.5803403,3.62436548 C14.2759924,4.05076142 15.0926276,4.3248731 15.9697543,4.3248731 L16,4.96446701 C16,4.96446701 16,4.96446701 16,4.96446701 Z" id="Path"></path>
                        </g>
                    </g>
                </g>
            </g>
        </g>
    </g>
</svg>