<?xml version="1.0" encoding="UTF-8"?>
<svg width="55px" height="55px" viewBox="0 0 55 55" version="1.1" xmlns="http://www.w3.org/2000/svg" xmlns:xlink="http://www.w3.org/1999/xlink">
    <title>53E52E4A-2752-4DB7-A01C-FA1323F9CA52</title>
    <defs>
        <rect id="path-1" x="0" y="0" width="55" height="55" rx="8"></rect>
    </defs>
    <g id="Page-1" stroke="none" stroke-width="1" fill="none" fill-rule="evenodd">
        <g id="Regulator---homepage---concept-FINAL" transform="translate(-340, -18348)">
            <g id="footer" transform="translate(73, 17897)">
                <g id="social" transform="translate(137, 451)">
                    <g id="Group-4" transform="translate(130, 0)">
                        <mask id="mask-2" fill="white">
                            <use xlink:href="#path-1"></use>
                        </mask>
                        <use id="Rectangle" fill="#FFFFFF" xlink:href="#path-1"></use>
                        <path d="M25.5582418,24.7628906 L30.5274725,27.5101563 L25.5582418,30.2574219 L25.5582418,24.7628906 Z M37,27.5152344 C37,27.5152344 37,24.4886719 36.6032967,23.0363281 C36.3840659,22.2339844 35.742033,21.6042969 34.9225275,21.3910156 C33.4453297,21 27.5,21 27.5,21 C27.5,21 21.5546703,21 20.0774725,21.3910156 C19.257967,21.6042969 18.6159341,22.2339844 18.3967033,23.0363281 C18,24.4835938 18,27.5152344 18,27.5152344 C18,27.5152344 18,30.5417969 18.3967033,31.9941406 C18.6159341,32.7964844 19.257967,33.4007813 20.0774725,33.6140625 C21.5546703,34 27.5,34 27.5,34 C27.5,34 33.4453297,34 34.9225275,33.6089844 C35.742033,33.3957031 36.3840659,32.7914063 36.6032967,31.9890625 C37,30.5417969 37,27.5152344 37,27.5152344 L37,27.5152344 Z" id="youtube-square" fill="#002E60" fill-rule="nonzero" mask="url(#mask-2)"></path>
                    </g>
                </g>
            </g>
        </g>
    </g>
</svg>